<svg fill="#fff" version="1.1" id="Layer_1" xmlns="http://www.w3.org/2000/svg" xmlns:xlink="http://www.w3.org/1999/xlink" x="0px" y="0px"
	 width="158.243px" height="240px" viewBox="0 0 158.243 240" enable-background="new 0 0 158.243 240" xml:space="preserve">
<g>
	<path d="M117.819,240.001c-1.13-1.387-2.152-2.877-3.404-4.144c-36.868-37.309-73.76-74.594-110.644-111.887
		c-1.248-1.261-2.438-2.578-3.771-3.99c1.603-1.685,2.834-3.022,4.111-4.314C40.881,78.495,77.657,41.33,114.411,4.143
		c1.252-1.267,2.276-2.757,3.408-4.143c0.332,0,0.666,0,1,0c13.028,13.729,26.057,27.459,39.424,41.546
		c-25.28,25.232-51.737,51.639-78.56,78.407c26.845,26.84,53.278,53.27,78.429,78.416c-13.309,14.1-26.301,27.865-39.293,41.631
		C118.485,240,118.153,240,117.819,240.001z"/>
</g>
</svg>
