<svg version="1.1" id="Layer_1" xmlns="http://www.w3.org/2000/svg" xmlns:xlink="http://www.w3.org/1999/xlink" x="0px" y="0px"
	 width="158.243px" height="240px" viewBox="0 0 158.243 240" enable-background="new 0 0 158.243 240" xml:space="preserve">
<g>
	<path d="M39.425,240c-12.993-13.766-25.985-27.531-39.293-41.631
		c25.15-25.146,51.584-51.576,78.428-78.416C51.738,93.185,25.281,66.778,0,41.546C13.368,27.459,26.396,13.729,39.425,0
		c0.333,0,0.667,0,1,0c1.131,1.386,2.156,2.876,3.407,4.143c36.754,37.187,73.53,74.352,110.3,111.524
		c1.277,1.292,2.508,2.629,4.111,4.314c-1.332,1.412-2.523,2.729-3.771,3.99c-36.884,37.293-73.775,74.578-110.644,111.886
		c-1.251,1.267-2.274,2.757-3.404,4.144C40.091,240,39.758,240,39.425,240z"/>
</g>
</svg>
